<?xml version="1.0" encoding="UTF-8" standalone="no"?>
<!DOCTYPE svg PUBLIC "-//W3C//DTD SVG 1.1//EN" "http://www.w3.org/Graphics/SVG/1.1/DTD/svg11.dtd">
<svg width="100%" height="100%" viewBox="0 0 500 500" version="1.1" xmlns="http://www.w3.org/2000/svg" xmlns:xlink="http://www.w3.org/1999/xlink" xml:space="preserve" xmlns:serif="http://www.serif.com/" style="fill-rule:evenodd;clip-rule:evenodd;stroke-linejoin:round;stroke-miterlimit:2;">
    <g transform="matrix(1,0,0,1,-206.617472,-2786.00618)">
        <g transform="matrix(1,0,0,1,991.209822,683.369977)">
            <g transform="matrix(0.956209,0,0,1.00426,-1057.681872,-794.856767)">
                <path d="M547.045,2885.203C691.343,2885.203 808.494,2996.749 808.494,3134.142C808.494,3271.536 691.343,3383.082 547.045,3383.082C402.747,3383.082 285.596,3271.536 285.596,3134.142C285.596,2996.749 402.747,2885.203 547.045,2885.203ZM547.045,2917.542C672.597,2917.542 774.53,3014.598 774.53,3134.142C774.53,3253.687 672.597,3350.742 547.045,3350.742C421.493,3350.742 319.561,3253.687 319.561,3134.142C319.561,3014.598 421.493,2917.542 547.045,2917.542Z"/>
            </g>
        </g>
        <g transform="matrix(1,0,0,1,991.209822,683.369977)">
            <g transform="matrix(0.245635,-0.425453,0.878379,0.507132,-3259.532674,842.181276)">
                <path d="M135.065,2859.822L135.065,3287.537C135.065,3291.941 127.684,3295.515 118.594,3295.515L85.652,3295.515C76.562,3295.515 69.181,3291.941 69.181,3287.537L69.181,2859.822C69.181,2855.419 76.562,2851.844 85.652,2851.844L118.594,2851.844C127.684,2851.844 135.065,2855.419 135.065,2859.822Z"/>
            </g>
        </g>
    </g>
</svg>
