<svg xmlns="http://www.w3.org/2000/svg" xml:space="preserve" style="fill-rule:evenodd;clip-rule:evenodd;stroke-linejoin:round;stroke-miterlimit:2" viewBox="0 0 1782 476">
  <path d="M212 197.1c.3 16 .4 175.6.4 175.6L178 386.4V197.1c0-5.7 8.8-11.7 17.4-11.6 8.3.1 16.4 6 16.6 11.6m52 37.2c.4 11 .5 121.5.5 121.5l-34.4 9.5v-131c0-4 8.7-8 17.4-8 8.2 0 16.4 4.2 16.5 8m50-76.9c.4 16 .5 175.7.5 175.7L280 346.7V157.4c0-5.7 8.7-11.7 17.3-11.6 8.3.1 16.5 6 16.6 11.6"/>
  <path d="M322.3 0c139 0 251.8 106.4 251.8 237.5S461.3 475 322.3 475 70.5 368.6 70.5 237.5 183.4 0 322.3 0m0 22.3c126 0 228.2 96.4 228.2 215.2S448.3 452.7 322.3 452.7 94.2 356.3 94.2 237.5 196.4 22.3 322.3 22.3"/>
  <path d="M51.6 293.9S-3.7 401.5 30 414.6c43.6 17 218.5-42.2 361.6-109q18.9-8.8 37.2-18.2c99.6-51.4 181.6-113.7 198.4-145.9 18-34.8-72.5-44.3-69-45.2 4.5-1.3 104-14 83.8 50-4 12.6-19.2 30.6-39.8 48.6q-9 7.9-19.1 15.4c-39.3 29.5-101.5 77.2-177 112.6-149.6 70-288.9 104.3-387.2 112.3-56.8 4.6 32.7-141.3 32.7-141.3"/>
  <text x="31.6" y="1500.3" style="font-family:&quot;SansSerifPlus7&quot;,&quot;Sans Serif Plus 7&quot;;font-size:200px" transform="translate(615 -1167.6)">UranusData</text>
  <circle cx="624.2" cy="1210" r="30.4" transform="translate(-195.4 -910.2)"/>
</svg>
